<svg width="92" height="233" viewBox="0 0 92 233" fill="none" xmlns="http://www.w3.org/2000/svg">
<mask id="path-1-inside-1_83_2" fill="white">
<path fill-rule="evenodd" clip-rule="evenodd" d="M85.9385 82.7216C87.9331 80.5479 89.0141 77.2941 89.0141 72.4857C89.0141 53.0197 69.678 15.8608 45.3525 15.8608C21.0271 15.8608 2.38336 53.0197 2.38336 72.4857C2.38336 77.4451 3.69857 80.7506 6.06111 82.9231C2.78555 85.9387 0.733246 90.2627 0.733246 95.066L0.733246 215.524C0.733246 224.637 8.12101 232.025 17.2343 232.025H74.9882C84.1015 232.025 91.4892 224.637 91.4892 215.524L91.4892 95.0659C91.4892 90.1546 89.3436 85.7444 85.9385 82.7216Z"/>
</mask>
<path fill-rule="evenodd" clip-rule="evenodd" d="M85.9385 82.7216C87.9331 80.5479 89.0141 77.2941 89.0141 72.4857C89.0141 53.0197 69.678 15.8608 45.3525 15.8608C21.0271 15.8608 2.38336 53.0197 2.38336 72.4857C2.38336 77.4451 3.69857 80.7506 6.06111 82.9231C2.78555 85.9387 0.733246 90.2627 0.733246 95.066L0.733246 215.524C0.733246 224.637 8.12101 232.025 17.2343 232.025H74.9882C84.1015 232.025 91.4892 224.637 91.4892 215.524L91.4892 95.0659C91.4892 90.1546 89.3436 85.7444 85.9385 82.7216Z" fill="#FDF1E1"/>
<path d="M85.9385 82.7216L83.5068 80.4904L81.2386 82.9624L83.7475 85.1896L85.9385 82.7216ZM6.06111 82.9231L8.29637 85.3511L10.9352 82.9218L8.29499 80.4939L6.06111 82.9231ZM91.4892 215.524H88.189H91.4892ZM85.7139 72.4857C85.7139 76.8408 84.7336 79.1534 83.5068 80.4904L88.3701 84.9529C91.1326 81.9423 92.3143 77.7475 92.3143 72.4857H85.7139ZM45.3525 19.161C55.8232 19.161 65.8761 27.2661 73.5658 38.7137C81.1935 50.0689 85.7139 63.5925 85.7139 72.4857H92.3143C92.3143 61.9129 87.1666 47.124 79.0449 35.0333C70.9852 23.035 59.2073 12.5606 45.3525 12.5606V19.161ZM5.68357 72.4857C5.68357 63.5639 10.0515 50.0295 17.5042 38.6856C25.0204 27.2447 34.8996 19.161 45.3525 19.161V12.5606C31.48 12.5606 19.8746 23.0563 11.9877 35.0614C4.03708 47.1634 -0.916862 61.9416 -0.916862 72.4857H5.68357ZM8.29499 80.4939C6.82525 79.1424 5.68357 76.8579 5.68357 72.4857H-0.916862C-0.916862 78.0322 0.571898 82.3588 3.82723 85.3524L8.29499 80.4939ZM4.03346 95.066C4.03346 91.2233 5.67106 87.768 8.29637 85.3511L3.82585 80.4952C-0.0999577 84.1094 -2.56697 89.302 -2.56697 95.066H4.03346ZM4.03346 215.524L4.03346 95.066H-2.56697L-2.56697 215.524H4.03346ZM17.2343 228.725C9.94368 228.725 4.03346 222.815 4.03346 215.524H-2.56697C-2.56697 226.46 6.29835 235.325 17.2343 235.325V228.725ZM74.9882 228.725H17.2343V235.325H74.9882V228.725ZM88.189 215.524C88.189 222.815 82.2788 228.725 74.9882 228.725V235.325C85.9241 235.325 94.7895 226.46 94.7895 215.524H88.189ZM88.189 95.0659L88.189 215.524H94.7895L94.7895 95.0659H88.189ZM83.7475 85.1896C86.477 87.6127 88.189 91.1372 88.189 95.0659H94.7895C94.7895 89.1719 92.2101 83.8761 88.1294 80.2536L83.7475 85.1896Z" fill="#251605" mask="url(#path-1-inside-1_83_2)"/>
<path d="M79.1794 70.0429C79.1794 84.9819 65.6674 80.3671 47.1152 80.3671C28.563 80.3671 13.1091 84.9819 13.1091 70.0429C13.1091 55.1038 27.328 26.5865 45.8802 26.5865C64.4324 26.5865 79.1794 55.1038 79.1794 70.0429Z" fill="#E69D77" fill-opacity="0.25"/>
<rect x="30.4352" y="1.83486" width="30.527" height="18.9763" rx="2.47516" fill="#EC4067" stroke="#251605" stroke-width="3.30022"/>
<rect x="10.634" y="88.4656" width="70.1296" height="136.134" rx="8.25055" fill="#E69D77" fill-opacity="0.25"/>
</svg>
