<svg width="264" height="264" viewBox="0 0 264 264" fill="none" xmlns="http://www.w3.org/2000/svg">
<circle cx="132" cy="132" r="127" fill="#EC4067" stroke="#251605" stroke-width="10"/>
<circle cx="132" cy="132" r="127" fill="#EC4067" stroke="#251605" stroke-width="10"/>
<path d="M129.644 56.9944C129.686 56.4335 130.153 56 130.716 56V56C131.272 56 131.737 56.424 131.787 56.9779L140.15 148.681C140.606 153.685 136.667 158 131.642 158H131.214C126.242 158 122.32 153.77 122.695 148.812L129.644 56.9944Z" fill="#251605"/>
<path d="M131 8V37.5" stroke="#251605" stroke-width="4"/>
<path d="M177.955 25.9036L173.275 40.1551" stroke="#251605" stroke-width="4"/>
<path d="M216.827 54L206 64.3818" stroke="#251605" stroke-width="4"/>
<path d="M238.763 88.2446L225.721 95.6553" stroke="#251605" stroke-width="4"/>
<path d="M171.679 238.752L167 224.5" stroke="#251605" stroke-width="4"/>
<path d="M210.551 210.655L199.725 200.274" stroke="#251605" stroke-width="4"/>
<path d="M232.487 176.411L219.446 169" stroke="#251605" stroke-width="4"/>
<path d="M92.8082 234.752L97.4875 220.5" stroke="#251605" stroke-width="4"/>
<path d="M53.9361 206.655L64.7629 196.274" stroke="#251605" stroke-width="4"/>
<path d="M32 172.411L45.0415 165" stroke="#251605" stroke-width="4"/>
<path d="M88.8082 26L93.4875 40.2515" stroke="#251605" stroke-width="4"/>
<path d="M49.9361 54.0964L60.7629 64.4782" stroke="#251605" stroke-width="4"/>
<path d="M28 88.341L41.0415 95.7517" stroke="#251605" stroke-width="4"/>
<path d="M225 132.044H254.5" stroke="#251605" stroke-width="4"/>
<path d="M9 132H38.5" stroke="#251605" stroke-width="4"/>
<path d="M132 224V253.5" stroke="#251605" stroke-width="4"/>
</svg>
