<svg width="675" height="689" viewBox="0 0 675 689" fill="none" xmlns="http://www.w3.org/2000/svg">
<mask id="path-1-inside-1_113_3" fill="white">
<path fill-rule="evenodd" clip-rule="evenodd" d="M378.721 39.1251L421.155 39.1121L421.156 42.5148L574.238 222.646L421.204 199.634L421.303 521.739C429.012 575.646 374.9 631.137 297.77 647.151C218.501 663.608 144.937 632.137 133.46 576.858C121.983 521.578 176.939 463.423 256.208 446.966C302.914 437.269 347.639 444.211 378.851 462.859L378.721 39.1251Z"/>
</mask>
<path fill-rule="evenodd" clip-rule="evenodd" d="M378.721 39.1251L421.155 39.1121L421.156 42.5148L574.238 222.646L421.204 199.634L421.303 521.739C429.012 575.646 374.9 631.137 297.77 647.151C218.501 663.608 144.937 632.137 133.46 576.858C121.983 521.578 176.939 463.423 256.208 446.966C302.914 437.269 347.639 444.211 378.851 462.859L378.721 39.1251Z" fill="#EC4067"/>
<path d="M421.155 39.1121L432.717 39.1085L432.713 27.5472L421.152 27.5508L421.155 39.1121ZM378.721 39.1251L378.718 27.5637L367.157 27.5672L367.16 39.1286L378.721 39.1251ZM421.156 42.5148L409.595 42.5183L409.596 46.7654L412.347 50.0016L421.156 42.5148ZM574.238 222.646L572.519 234.078L603.025 238.666L583.048 215.159L574.238 222.646ZM421.204 199.634L422.924 188.201L409.639 186.203L409.643 199.637L421.204 199.634ZM421.303 521.739L409.741 521.742L409.741 522.563L409.858 523.376L421.303 521.739ZM297.77 647.151L300.12 658.471L300.12 658.471L297.77 647.151ZM133.46 576.858L122.14 579.208L133.46 576.858ZM256.208 446.966L258.558 458.286L258.558 458.286L256.208 446.966ZM378.851 462.859L372.921 472.784L390.418 483.237L390.412 462.855L378.851 462.859ZM421.152 27.5508L378.718 27.5637L378.725 50.6864L421.159 50.6735L421.152 27.5508ZM432.718 42.5112L432.717 39.1085L409.594 39.1157L409.595 42.5183L432.718 42.5112ZM412.347 50.0016L565.428 230.132L583.048 215.159L429.966 35.0279L412.347 50.0016ZM575.957 211.213L422.924 188.201L419.485 211.066L572.519 234.078L575.957 211.213ZM432.864 521.735L432.766 199.63L409.643 199.637L409.741 521.742L432.864 521.735ZM300.12 658.471C340.667 650.052 375.614 631.181 399.6 606.755C423.535 582.381 437.254 551.612 432.747 520.102L409.858 523.376C413.061 545.773 403.578 569.703 383.102 590.555C362.677 611.354 332.003 628.235 295.42 635.831L300.12 658.471ZM122.14 579.208C128.86 611.575 153.526 635.794 185.646 649.535C217.809 663.295 258.457 667.121 300.12 658.471L295.42 635.831C257.814 643.638 222.045 639.957 194.74 628.276C167.391 616.576 149.537 597.42 144.78 574.507L122.14 579.208ZM253.858 435.646C212.194 444.296 176.429 463.986 152.401 489.413C128.406 514.804 115.42 546.841 122.14 579.208L144.78 574.507C140.023 551.595 148.776 526.914 169.207 505.294C189.605 483.709 220.952 466.093 258.558 458.286L253.858 435.646ZM384.78 452.934C350.654 432.545 302.873 425.469 253.858 435.646L258.558 458.286C302.954 449.068 344.624 455.877 372.921 472.784L384.78 452.934ZM367.16 39.1286L367.289 462.862L390.412 462.855L390.283 39.1215L367.16 39.1286Z" fill="#251605" mask="url(#path-1-inside-1_113_3)"/>
</svg>
