<svg width="444" height="613" viewBox="0 0 444 613" fill="none" xmlns="http://www.w3.org/2000/svg">
<mask id="path-1-inside-1_105_7" fill="white">
<path fill-rule="evenodd" clip-rule="evenodd" d="M247.721 0.124997L290.155 0.112055L290.156 3.51469L443.238 183.646L290.204 160.634L290.303 482.739C298.012 536.646 243.9 592.137 166.77 608.151C87.5011 624.608 13.937 593.137 2.45991 537.857C-9.01717 482.578 45.9389 424.423 125.208 407.966C171.914 398.269 216.639 405.211 247.851 423.859L247.721 0.124997Z"/>
</mask>
<path fill-rule="evenodd" clip-rule="evenodd" d="M247.721 0.124997L290.155 0.112055L290.156 3.51469L443.238 183.646L290.204 160.634L290.303 482.739C298.012 536.646 243.9 592.137 166.77 608.151C87.5011 624.608 13.937 593.137 2.45991 537.857C-9.01717 482.578 45.9389 424.423 125.208 407.966C171.914 398.269 216.639 405.211 247.851 423.859L247.721 0.124997Z" fill="#EC4067"/>
<path d="M290.155 0.112055L301.717 0.108483L301.713 -11.4528L290.152 -11.4493L290.155 0.112055ZM247.721 0.124997L247.718 -11.4364L236.157 -11.4328L236.16 0.128523L247.721 0.124997ZM290.156 3.51469L278.595 3.51827L278.596 7.7653L281.347 11.0015L290.156 3.51469ZM443.238 183.646L441.519 195.078L472.025 199.666L452.048 176.159L443.238 183.646ZM290.204 160.634L291.924 149.201L278.639 147.203L278.643 160.637L290.204 160.634ZM290.303 482.739L278.741 482.742L278.741 483.563L278.858 484.375L290.303 482.739ZM166.77 608.151L169.12 619.471L169.12 619.471L166.77 608.151ZM2.45991 537.857L-8.86005 540.208L-8.86005 540.208L2.45991 537.857ZM125.208 407.966L127.558 419.286L127.558 419.286L125.208 407.966ZM247.851 423.859L241.921 433.784L259.418 444.237L259.412 423.855L247.851 423.859ZM290.152 -11.4493L247.718 -11.4364L247.725 11.6864L290.159 11.6734L290.152 -11.4493ZM301.718 3.51112L301.717 0.108483L278.594 0.115627L278.595 3.51827L301.718 3.51112ZM281.347 11.0015L434.428 191.132L452.048 176.159L298.966 -3.97216L281.347 11.0015ZM444.957 172.213L291.924 149.201L288.485 172.066L441.519 195.078L444.957 172.213ZM301.864 482.735L301.766 160.63L278.643 160.637L278.741 482.742L301.864 482.735ZM169.12 619.471C209.667 611.052 244.614 592.181 268.6 567.755C292.535 543.381 306.254 512.612 301.747 481.102L278.858 484.375C282.061 506.773 272.578 530.703 252.102 551.554C231.677 572.354 201.003 589.235 164.42 596.831L169.12 619.471ZM-8.86005 540.208C-2.14007 572.575 22.5263 596.794 54.6456 610.535C86.8092 624.295 127.457 628.121 169.12 619.471L164.42 596.831C126.814 604.638 91.0454 600.957 63.7404 589.276C36.3913 577.576 18.537 558.42 13.7799 535.507L-8.86005 540.208ZM122.858 396.646C81.1945 405.296 45.429 424.986 21.4012 450.413C-2.5936 475.804 -15.58 507.841 -8.86005 540.208L13.7799 535.507C9.02275 512.594 17.7758 487.914 38.207 466.294C58.6052 444.709 89.9522 427.093 127.558 419.286L122.858 396.646ZM253.78 413.934C219.654 393.545 171.873 386.469 122.858 396.646L127.558 419.286C171.954 410.068 213.624 416.877 241.921 433.784L253.78 413.934ZM236.16 0.128523L236.289 423.862L259.412 423.855L259.283 0.121471L236.16 0.128523Z" fill="#251605" mask="url(#path-1-inside-1_105_7)"/>
</svg>
