<svg width="91" height="232" viewBox="0 0 91 232" fill="none" xmlns="http://www.w3.org/2000/svg">
<mask id="path-1-inside-1_83_2" fill="white">
<path fill-rule="evenodd" clip-rule="evenodd" d="M85.2052 82.5368C87.1998 80.3631 88.2808 77.1094 88.2808 72.301C88.2808 52.835 68.9447 15.676 44.6193 15.676C20.2939 15.676 1.65011 52.835 1.65011 72.301C1.65011 77.2603 2.96533 80.5658 5.32786 82.7384C2.0523 85.754 0 90.0779 0 94.8812L0 215.339C0 224.452 7.38777 231.84 16.5011 231.84H74.2549C83.3682 231.84 90.756 224.452 90.756 215.339L90.756 94.8812C90.756 89.9698 88.6103 85.5596 85.2052 82.5368Z"/>
</mask>
<path fill-rule="evenodd" clip-rule="evenodd" d="M85.2052 82.5368C87.1998 80.3631 88.2808 77.1094 88.2808 72.301C88.2808 52.835 68.9447 15.676 44.6193 15.676C20.2939 15.676 1.65011 52.835 1.65011 72.301C1.65011 77.2603 2.96533 80.5658 5.32786 82.7384C2.0523 85.754 0 90.0779 0 94.8812L0 215.339C0 224.452 7.38777 231.84 16.5011 231.84H74.2549C83.3682 231.84 90.756 224.452 90.756 215.339L90.756 94.8812C90.756 89.9698 88.6103 85.5596 85.2052 82.5368Z" fill="#FDF1E1"/>
<path d="M85.2052 82.5368L82.7736 80.3056L80.5053 82.7776L83.0143 85.0049L85.2052 82.5368ZM5.32786 82.7384L7.56312 85.1664L10.2019 82.737L7.56174 80.3091L5.32786 82.7384ZM90.756 215.339H87.4558H90.756ZM84.9806 72.301C84.9806 76.656 84.0003 78.9687 82.7736 80.3056L87.6369 84.7681C90.3994 81.7575 91.5811 77.5627 91.5811 72.301H84.9806ZM44.6193 18.9762C55.0899 18.9762 65.1428 27.0813 72.8326 38.529C80.4602 49.8842 84.9806 63.4078 84.9806 72.301H91.5811C91.5811 61.7282 86.4334 46.9393 78.3116 34.8485C70.252 22.8502 58.4741 12.3758 44.6193 12.3758V18.9762ZM4.95033 72.301C4.95033 63.3791 9.31828 49.8448 16.7709 38.5008C24.2872 27.0599 34.1664 18.9762 44.6193 18.9762V12.3758C30.7468 12.3758 19.1414 22.8716 11.2544 34.8767C3.30383 46.9787 -1.65011 61.7568 -1.65011 72.301H4.95033ZM7.56174 80.3091C6.092 78.9576 4.95033 76.6731 4.95033 72.301H-1.65011C-1.65011 77.8475 -0.161348 82.1741 3.09398 85.1676L7.56174 80.3091ZM3.30022 94.8812C3.30022 91.0386 4.93781 87.5833 7.56312 85.1664L3.0926 80.3104C-0.833204 83.9246 -3.30022 89.1173 -3.30022 94.8812H3.30022ZM3.30022 215.339L3.30022 94.8812H-3.30022L-3.30022 215.339H3.30022ZM16.5011 228.54C9.21043 228.54 3.30022 222.63 3.30022 215.339H-3.30022C-3.30022 226.275 5.5651 235.14 16.5011 235.14V228.54ZM74.2549 228.54H16.5011V235.14H74.2549V228.54ZM87.4558 215.339C87.4558 222.63 81.5455 228.54 74.2549 228.54V235.14C85.1909 235.14 94.0562 226.275 94.0562 215.339H87.4558ZM87.4558 94.8812L87.4558 215.339H94.0562L94.0562 94.8812H87.4558ZM83.0143 85.0049C85.7438 87.4279 87.4558 90.9525 87.4558 94.8812H94.0562C94.0562 88.9872 91.4769 83.6914 87.3962 80.0688L83.0143 85.0049Z" fill="#251605" mask="url(#path-1-inside-1_83_2)"/>
<rect x="29.702" y="1.65011" width="30.527" height="18.9763" rx="2.47516" fill="#EC4067" stroke="#251605" stroke-width="3.30022"/>
</svg>
