<svg width="262" height="214" viewBox="0 0 262 214" fill="none" xmlns="http://www.w3.org/2000/svg">
<rect x="2" y="2" width="258" height="210" rx="8" fill="#D9D9D9" stroke="#251605" stroke-width="4"/>
<path d="M2 84H260V204C260 208.418 256.418 212 252 212H10C5.58173 212 2 208.418 2 204V84Z" fill="#FDF1E1" stroke="#251605" stroke-width="4"/>
<path d="M2 84H45V203H10C5.58172 203 2 199.418 2 195V84Z" fill="white" stroke="#251605" stroke-width="4"/>
<path d="M260 84H217V203H252C256.418 203 260 199.418 260 195V84Z" fill="white" stroke="#251605" stroke-width="4"/>
<path d="M45 84H88V203H45V84Z" fill="white" stroke="#251605" stroke-width="4"/>
<path d="M88 84H131V203H88V84Z" fill="white" stroke="#251605" stroke-width="4"/>
<path d="M131 84H174V203H131V84Z" fill="white" stroke="#251605" stroke-width="4"/>
<path d="M174 84H217V203H174V84Z" fill="white" stroke="#251605" stroke-width="4"/>
<path d="M10 2H252C256.418 2 260 5.58172 260 10V85H2V10C2 5.58172 5.58172 2 10 2Z" fill="#EC4067" stroke="#251605" stroke-width="4"/>
<rect y="85" width="11" height="63" rx="2" fill="#251605"/>
<rect x="251" y="85" width="11" height="63" rx="2" fill="#251605"/>
<rect x="81" y="85" width="17" height="63" rx="2" fill="#251605"/>
<rect x="124" y="85" width="17" height="63" rx="2" fill="#251605"/>
<rect x="165" y="85" width="17" height="63" rx="2" fill="#251605"/>
</svg>
