<svg width="675" height="689" viewBox="0 0 675 689" fill="none" xmlns="http://www.w3.org/2000/svg">
<mask id="path-1-inside-1_113_8" fill="white">
<path fill-rule="evenodd" clip-rule="evenodd" d="M464.073 45.8239L422.06 45.8142L421.963 465.35C391.071 446.87 346.792 439.973 300.544 449.549C222.052 465.802 167.61 523.351 178.944 578.089C190.278 632.827 263.096 664.025 341.588 647.773C417.963 631.958 471.568 577.046 463.963 523.668L464.073 45.8239Z"/>
</mask>
<path fill-rule="evenodd" clip-rule="evenodd" d="M464.073 45.8239L422.06 45.8142L421.963 465.35C391.071 446.87 346.792 439.973 300.544 449.549C222.052 465.802 167.61 523.351 178.944 578.089C190.278 632.827 263.096 664.025 341.588 647.773C417.963 631.958 471.568 577.046 463.963 523.668L464.073 45.8239Z" fill="#EC4067"/>
<path d="M422.06 45.8145L422.063 34.3677L410.616 34.365L410.613 45.8118L422.06 45.8145ZM464.073 45.8242L475.52 45.8268L475.523 34.38L464.076 34.3774L464.073 45.8242ZM421.963 465.35L416.087 475.173L433.405 485.533L433.41 465.353L421.963 465.35ZM300.544 449.549L298.223 438.34L300.544 449.549ZM178.943 578.089L167.734 580.41L178.943 578.089ZM341.588 647.773L343.909 658.982L341.588 647.773ZM463.963 523.668L452.516 523.666L452.516 524.478L452.631 525.283L463.963 523.668ZM422.057 57.2613L464.071 57.271L464.076 34.3774L422.063 34.3677L422.057 57.2613ZM433.41 465.353L433.507 45.8171L410.613 45.8118L410.516 465.347L433.41 465.353ZM302.865 460.758C346.826 451.656 388.079 458.419 416.087 475.173L427.839 455.526C394.062 435.321 346.758 428.291 298.223 438.34L302.865 460.758ZM190.152 575.768C185.455 553.08 194.134 528.649 214.374 507.254C234.582 485.893 265.628 468.469 302.865 460.758L298.223 438.34C256.968 446.883 221.547 466.359 197.743 491.521C173.973 516.648 161.098 548.36 167.734 580.41L190.152 575.768ZM339.267 636.564C302.03 644.274 266.618 640.611 239.589 629.031C212.517 617.432 194.85 598.456 190.152 575.768L167.734 580.41C174.371 612.46 198.78 636.452 230.573 650.074C262.411 663.715 302.654 667.524 343.909 658.982L339.267 636.564ZM452.631 525.283C455.79 547.46 446.389 571.148 426.105 591.782C405.871 612.365 375.492 629.063 339.267 636.564L343.909 658.982C384.059 650.669 418.67 632.003 442.431 607.831C466.142 583.711 479.741 553.254 475.295 522.054L452.631 525.283ZM452.627 45.8215L452.516 523.666L475.41 523.671L475.52 45.8268L452.627 45.8215Z" fill="#251605" mask="url(#path-1-inside-1_113_8)"/>
</svg>
