<svg width="288" height="608" viewBox="0 0 288 608" fill="none" xmlns="http://www.w3.org/2000/svg">
<mask id="path-1-inside-1_65_2" fill="white">
<path fill-rule="evenodd" clip-rule="evenodd" d="M287.073 0.823849L245.06 0.814148L244.963 420.35C214.071 401.87 169.792 394.973 123.544 404.549C45.0519 420.802 -9.39048 478.351 1.94355 533.089C13.2776 587.827 86.0961 619.025 164.588 602.773C240.963 586.958 294.568 532.046 286.963 478.668L287.073 0.823849Z"/>
</mask>
<path fill-rule="evenodd" clip-rule="evenodd" d="M287.073 0.823849L245.06 0.814148L244.963 420.35C214.071 401.87 169.792 394.973 123.544 404.549C45.0519 420.802 -9.39048 478.351 1.94355 533.089C13.2776 587.827 86.0961 619.025 164.588 602.773C240.963 586.958 294.568 532.046 286.963 478.668L287.073 0.823849Z" fill="#EC4067"/>
<path d="M245.06 0.814148L245.063 -10.6327L233.616 -10.6353L233.613 0.811505L245.06 0.814148ZM287.073 0.823849L298.52 0.826493L298.523 -10.6203L287.076 -10.623L287.073 0.823849ZM244.963 420.35L239.087 430.173L256.405 440.533L256.41 420.352L244.963 420.35ZM123.544 404.549L121.223 393.34L121.223 393.34L123.544 404.549ZM1.94355 533.089L-9.26548 535.41L1.94355 533.089ZM164.588 602.773L166.909 613.982L166.909 613.982L164.588 602.773ZM286.963 478.668L275.516 478.665L275.516 479.478L275.631 480.283L286.963 478.668ZM245.057 12.2609L287.071 12.2707L287.076 -10.623L245.063 -10.6327L245.057 12.2609ZM256.41 420.352L256.507 0.816791L233.613 0.811505L233.516 420.347L256.41 420.352ZM125.865 415.758C169.826 406.655 211.079 413.419 239.087 430.173L250.839 410.526C217.062 390.321 169.758 383.29 121.223 393.34L125.865 415.758ZM13.1526 530.768C8.45477 508.08 17.1342 483.649 37.3744 462.253C57.582 440.893 88.6277 423.468 125.865 415.758L121.223 393.34C79.9683 401.882 44.5468 421.359 20.7435 446.52C-3.02696 471.647 -15.9017 503.36 -9.26548 535.41L13.1526 530.768ZM162.267 591.564C125.03 599.274 89.6178 595.61 62.5896 584.03C35.5176 572.432 17.8504 553.456 13.1526 530.768L-9.26548 535.41C-2.62927 567.459 21.7798 591.452 53.5736 605.074C85.4112 618.714 125.654 622.524 166.909 613.982L162.267 591.564ZM275.631 480.283C278.79 502.46 269.389 526.148 249.105 546.782C228.871 567.365 198.492 584.063 162.267 591.564L166.909 613.982C207.059 605.668 241.67 587.003 265.431 562.831C289.142 538.711 302.741 508.254 298.296 477.053L275.631 480.283ZM275.627 0.821206L275.516 478.665L298.41 478.671L298.52 0.826493L275.627 0.821206Z" fill="#251605" mask="url(#path-1-inside-1_65_2)"/>
</svg>
