<svg width="675" height="688" viewBox="0 0 675 688" fill="none" xmlns="http://www.w3.org/2000/svg">
<mask id="path-1-inside-1_105_19" fill="white">
<path fill-rule="evenodd" clip-rule="evenodd" d="M429.777 34.4261L405.771 34.4262L405.477 34.0928L405.536 34.4262L386.737 34.4264L386.739 467.724C355.087 449.492 309.725 442.694 262.348 452.157C181.941 468.217 126.182 525.033 137.806 579.059C149.431 633.084 224.037 663.861 304.444 647.801C382.683 632.174 437.586 577.959 429.78 525.275L429.779 274.682L579.001 327.102L455.621 187.138L575.162 226.585L429.777 61.6593L429.777 34.4261Z"/>
</mask>
<path fill-rule="evenodd" clip-rule="evenodd" d="M429.777 34.4261L405.771 34.4262L405.477 34.0928L405.536 34.4262L386.737 34.4264L386.739 467.724C355.087 449.492 309.725 442.694 262.348 452.157C181.941 468.217 126.182 525.033 137.806 579.059C149.431 633.084 224.037 663.861 304.444 647.801C382.683 632.174 437.586 577.959 429.78 525.275L429.779 274.682L579.001 327.102L455.621 187.138L575.162 226.585L429.777 61.6593L429.777 34.4261Z" fill="#EC4067"/>
<path d="M405.771 34.4262L396.947 41.9865L400.545 46.0682L405.975 46.0682L405.771 34.4262ZM429.777 34.4261L441.557 34.6275L441.557 22.7841L429.573 22.7841L429.777 34.4261ZM405.477 34.0928L414.302 26.5325L386.752 -4.72161L393.871 35.887L405.477 34.0928ZM405.536 34.4262L405.74 46.0682L419.497 46.0681L417.142 32.632L405.536 34.4262ZM386.737 34.4264L386.533 22.7844L374.957 22.7845L374.957 34.2249L386.737 34.4264ZM386.739 467.724L380.94 477.757L398.52 487.883L398.52 467.926L386.739 467.724ZM262.348 452.157L264.873 463.57L264.873 463.57L262.348 452.157ZM137.806 579.059L126.286 581.291L137.806 579.059ZM304.444 647.801L306.969 659.214L306.969 659.214L304.444 647.801ZM429.78 525.275L418 525.073L418 525.923L418.125 526.766L429.78 525.275ZM429.779 274.682L433.553 263.719L417.999 258.255L417.999 274.48L429.779 274.682ZM579.001 327.102L575.227 338.064L617.129 352.784L587.826 319.541L579.001 327.102ZM455.621 187.138L459.177 176.102L418.601 162.712L446.797 194.699L455.621 187.138ZM575.162 226.585L571.606 237.621L612.183 251.011L583.986 219.024L575.162 226.585ZM429.777 61.6593L417.997 61.4579L417.997 65.8666L420.953 69.2197L429.777 61.6593ZM405.975 46.0682L429.981 46.0681L429.573 22.7841L405.567 22.7843L405.975 46.0682ZM396.653 41.6531L396.947 41.9865L414.595 26.866L414.302 26.5325L396.653 41.6531ZM417.142 32.632L417.083 32.2986L393.871 35.887L393.929 36.2205L417.142 32.632ZM386.941 46.0683L405.74 46.0682L405.332 22.7843L386.533 22.7844L386.941 46.0683ZM398.52 467.926L398.517 34.6278L374.957 34.2249L374.959 467.523L398.52 467.926ZM264.873 463.57C309.996 454.557 352.287 461.252 380.94 477.757L392.539 457.692C357.887 437.731 309.453 430.831 259.823 440.744L264.873 463.57ZM149.327 576.826C144.573 554.731 153.31 530.724 174.09 509.551C194.808 488.44 226.66 471.203 264.873 463.57L259.823 440.744C217.63 449.172 181.398 468.373 157.041 493.191C132.745 517.947 119.415 549.36 126.286 581.291L149.327 576.826ZM301.919 636.388C263.704 644.021 227.389 640.399 199.708 628.98C171.96 617.533 154.076 598.897 149.327 576.826L126.286 581.291C133.161 613.246 158.392 637.011 190.955 650.444C223.585 663.905 264.777 667.641 306.969 659.214L301.919 636.388ZM418.125 526.766C421.328 548.382 411.835 571.679 391.009 592.1C370.263 612.444 339.094 628.963 301.919 636.388L306.969 659.214C348.034 651.012 383.436 632.61 407.749 608.768C431.983 585.005 446.039 554.851 441.436 523.784L418.125 526.766ZM417.999 274.48L418 525.073L441.56 525.476L441.559 274.883L417.999 274.48ZM582.775 316.14L433.553 263.719L426.005 285.644L575.227 338.064L582.775 316.14ZM446.797 194.699L570.177 334.662L587.826 319.541L464.446 179.578L446.797 194.699ZM578.718 215.548L459.177 176.102L452.065 198.175L571.606 237.621L578.718 215.548ZM420.953 69.2197L566.338 234.145L583.986 219.024L438.602 54.0988L420.953 69.2197ZM417.997 34.2247L417.997 61.4579L441.558 61.8607L441.557 34.6275L417.997 34.2247Z" fill="#251605" mask="url(#path-1-inside-1_105_19)"/>
</svg>
