<svg width="675" height="689" viewBox="0 0 675 689" fill="none" xmlns="http://www.w3.org/2000/svg">
<mask id="path-1-inside-1_105_19" fill="white">
<path fill-rule="evenodd" clip-rule="evenodd" d="M429.328 34.4428L405.348 34.4429L405.054 34.1091L405.112 34.4429L386.333 34.443L386.336 467.951C354.716 449.71 309.401 442.909 262.074 452.376C181.751 468.444 126.05 525.288 137.662 579.339C149.275 633.391 223.803 664.183 304.126 648.115C382.283 632.48 437.128 578.24 429.332 525.53L429.33 274.815L578.397 327.26L455.146 187.229L574.561 226.694L429.329 61.689L429.328 34.4428Z"/>
</mask>
<path fill-rule="evenodd" clip-rule="evenodd" d="M429.328 34.4428L405.348 34.4429L405.054 34.1091L405.112 34.4429L386.333 34.443L386.336 467.951C354.716 449.71 309.401 442.909 262.074 452.376C181.751 468.444 126.05 525.288 137.662 579.339C149.275 633.391 223.803 664.183 304.126 648.115C382.283 632.48 437.128 578.24 429.332 525.53L429.33 274.815L578.397 327.26L455.146 187.229L574.561 226.694L429.329 61.689L429.328 34.4428Z" fill="#EC4067"/>
<path d="M405.348 34.4429L396.519 42.0044L400.113 46.0878L405.543 46.0878L405.348 34.4429ZM429.328 34.4428L441.106 34.636L441.106 22.7979L429.133 22.798L429.328 34.4428ZM405.054 34.1091L413.882 26.5476L386.328 -4.75614L393.45 35.9105L405.054 34.1091ZM405.112 34.4429L405.308 46.0878L419.071 46.0877L416.716 32.6415L405.112 34.4429ZM386.333 34.443L386.137 22.7982L374.556 22.7983L374.556 34.2499L386.333 34.443ZM386.336 467.951L380.527 477.984L398.113 488.13L398.113 468.144L386.336 467.951ZM262.074 452.376L259.555 440.961L259.555 440.961L262.074 452.376ZM137.662 579.339L149.181 577.101L137.662 579.339ZM304.126 648.115L306.645 659.53L306.645 659.53L304.126 648.115ZM429.332 525.53L417.554 525.337L417.554 526.186L417.679 527.028L429.332 525.53ZM429.33 274.815L433.114 263.851L417.553 258.376L417.553 274.621L429.33 274.815ZM578.397 327.26L574.613 338.224L616.502 352.962L587.225 319.699L578.397 327.26ZM455.146 187.229L458.711 176.191L418.147 162.784L446.317 194.79L455.146 187.229ZM574.561 226.694L570.995 237.733L611.56 251.139L583.39 219.133L574.561 226.694ZM429.329 61.689L417.551 61.4958L417.551 65.9002L420.5 69.2502L429.329 61.689ZM405.543 46.0878L429.524 46.0876L429.133 22.798L405.152 22.7981L405.543 46.0878ZM396.225 41.6705L396.519 42.0044L414.176 26.8815L413.882 26.5476L396.225 41.6705ZM416.716 32.6415L416.657 32.3077L393.45 35.9105L393.509 36.2444L416.716 32.6415ZM386.528 46.0879L405.308 46.0878L404.917 22.7981L386.137 22.7982L386.528 46.0879ZM398.113 468.144L398.11 34.6362L374.556 34.2499L374.558 467.758L398.113 468.144ZM264.593 463.791C309.663 454.776 351.906 461.472 380.527 477.984L392.144 457.918C357.527 437.947 309.14 431.042 259.555 440.961L264.593 463.791ZM149.181 577.101C144.43 554.988 153.162 530.968 173.916 509.788C194.61 488.67 226.425 471.427 264.593 463.791L259.555 440.961C217.401 449.394 181.203 468.606 156.869 493.44C132.594 518.212 119.282 549.639 126.144 581.577L149.181 577.101ZM301.607 636.7C263.437 644.335 227.164 640.712 199.514 629.288C171.798 617.837 153.927 599.191 149.181 577.101L126.144 581.577C133.01 613.539 158.209 637.315 190.741 650.756C223.34 664.224 264.492 667.962 306.645 659.53L301.607 636.7ZM417.679 527.028C420.879 548.661 411.392 571.969 390.593 592.396C369.87 612.747 338.738 629.272 301.607 636.7L306.645 659.53C347.671 651.323 383.04 632.91 407.331 609.055C431.543 585.276 445.581 555.108 440.984 524.032L417.679 527.028ZM417.553 274.621L417.554 525.337L441.109 525.723L441.107 275.008L417.553 274.621ZM582.181 316.296L433.114 263.851L425.546 285.778L574.613 338.224L582.181 316.296ZM446.317 194.79L569.568 334.821L587.225 319.699L463.974 179.668L446.317 194.79ZM578.127 215.656L458.711 176.191L451.58 198.267L570.995 237.733L578.127 215.656ZM420.5 69.2502L565.733 234.256L583.39 219.133L438.157 54.1278L420.5 69.2502ZM417.551 34.2496L417.551 61.4958L441.106 61.8822L441.106 34.636L417.551 34.2496Z" fill="#251605" mask="url(#path-1-inside-1_105_19)"/>
</svg>
