<svg width="362" height="365" viewBox="0 0 362 365" fill="none" xmlns="http://www.w3.org/2000/svg">
<rect x="6.17102" y="154.384" width="110.817" height="234.034" rx="15.4989" transform="rotate(-34.6665 6.17102 154.384)" fill="#AA2A47"/>
<rect x="8.32735" y="154.777" width="107.718" height="230.934" rx="13.949" transform="rotate(-34.6665 8.32735 154.777)" stroke="#251605" stroke-opacity="0.75" stroke-width="3.09979"/>
<rect x="90.755" y="273.966" width="228.609" height="43.397" transform="rotate(-34.6665 90.755 273.966)" fill="#BEB4A6" stroke="#251605" stroke-width="3.09979"/>
<mask id="path-4-inside-1_84_9" fill="white">
<path fill-rule="evenodd" clip-rule="evenodd" d="M11.6809 162.351C5.22972 153.023 7.56211 140.231 16.8904 133.78L193.443 11.6809C202.772 5.22975 215.564 7.56215 222.015 16.8905C222.244 17.222 222.462 17.5579 222.669 17.8978C222.826 18.0842 222.975 18.2796 223.117 18.4839L357.117 212.246C359.551 215.766 358.671 220.593 355.151 223.028L177.323 346.008C173.803 348.442 168.976 347.562 166.541 344.042L43.1205 165.577L43.0633 165.616C42.8121 165.173 42.5389 164.736 42.2435 164.309C42.242 164.307 42.2404 164.304 42.2389 164.302C42.2373 164.3 42.2358 164.298 42.2342 164.295C36.877 156.557 26.2613 154.623 18.5192 159.977L12.8571 163.893C12.4452 163.402 12.0525 162.888 11.6809 162.351Z"/>
</mask>
<path fill-rule="evenodd" clip-rule="evenodd" d="M11.6809 162.351C5.22972 153.023 7.56211 140.231 16.8904 133.78L193.443 11.6809C202.772 5.22975 215.564 7.56215 222.015 16.8905C222.244 17.222 222.462 17.5579 222.669 17.8978C222.826 18.0842 222.975 18.2796 223.117 18.4839L357.117 212.246C359.551 215.766 358.671 220.593 355.151 223.028L177.323 346.008C173.803 348.442 168.976 347.562 166.541 344.042L43.1205 165.577L43.0633 165.616C42.8121 165.173 42.5389 164.736 42.2435 164.309C42.242 164.307 42.2404 164.304 42.2389 164.302C42.2373 164.3 42.2358 164.298 42.2342 164.295C36.877 156.557 26.2613 154.623 18.5192 159.977L12.8571 163.893C12.4452 163.402 12.0525 162.888 11.6809 162.351Z" fill="#EC4067"/>
<path d="M222.669 17.8978L220.023 19.5112L220.145 19.7123L220.297 19.8925L222.669 17.8978ZM357.117 212.246L354.567 214.009L357.117 212.246ZM43.1205 165.577L45.67 163.814L43.9068 161.264L41.3573 163.027L43.1205 165.577ZM43.0633 165.616L40.3658 167.144L42.0369 170.095L44.8265 168.166L43.0633 165.616ZM42.2435 164.309L44.7938 162.547L44.793 162.546L42.2435 164.309ZM42.2342 164.295L44.7837 162.532L44.7829 162.531L42.2342 164.295ZM12.8571 163.893L10.4829 165.886L12.2981 168.048L14.6202 166.443L12.8571 163.893ZM15.1273 131.23C4.3909 138.655 1.70646 153.378 9.13141 164.114L14.2304 160.588C8.75299 152.667 10.7333 141.806 18.6536 136.329L15.1273 131.23ZM191.68 9.13143L15.1273 131.23L18.6536 136.329L195.207 14.2304L191.68 9.13143ZM224.564 15.1273C217.139 4.39094 202.417 1.70648 191.68 9.13143L195.207 14.2304C203.127 8.75302 213.988 10.7333 219.465 18.6536L224.564 15.1273ZM225.316 16.2844C225.078 15.8937 224.827 15.5078 224.564 15.1273L219.465 18.6536C219.661 18.9362 219.846 19.2222 220.023 19.5112L225.316 16.2844ZM220.297 19.8925C220.391 20.0046 220.481 20.1228 220.567 20.247L225.666 16.7207C225.47 16.4364 225.261 16.1637 225.042 15.9031L220.297 19.8925ZM220.567 20.247L354.567 214.009L359.666 210.483L225.666 16.7207L220.567 20.247ZM354.567 214.009C356.028 216.121 355.5 219.017 353.388 220.478L356.914 225.577C361.842 222.169 363.074 215.411 359.666 210.483L354.567 214.009ZM353.388 220.478L175.56 343.458L179.086 348.557L356.914 225.577L353.388 220.478ZM175.56 343.458C173.448 344.919 170.552 344.391 169.091 342.279L163.992 345.805C167.4 350.733 174.158 351.965 179.086 348.557L175.56 343.458ZM169.091 342.279L45.67 163.814L40.571 167.34L163.992 345.805L169.091 342.279ZM44.8265 168.166L44.8836 168.126L41.3573 163.027L41.3001 163.067L44.8265 168.166ZM39.6932 166.071C39.936 166.422 40.1601 166.78 40.3658 167.144L45.7608 164.089C45.4641 163.565 45.1418 163.051 44.7938 162.547L39.6932 166.071ZM39.6894 166.065C39.6898 166.066 39.6902 166.067 39.6911 166.068C39.6918 166.069 39.6929 166.07 39.694 166.072L44.793 162.546C44.7926 162.545 44.7921 162.544 44.7913 162.543C44.7906 162.542 44.7895 162.541 44.7884 162.539L39.6894 166.065ZM39.6847 166.059C39.6859 166.06 39.687 166.062 39.6877 166.063C39.6885 166.064 39.689 166.065 39.6894 166.065L44.7884 162.539C44.7872 162.537 44.7862 162.536 44.7854 162.535C44.7846 162.534 44.7841 162.533 44.7837 162.532L39.6847 166.059ZM20.2824 162.527C26.6168 158.146 35.3024 159.728 39.6856 166.06L44.7829 162.531C38.4517 153.385 25.9058 151.1 16.7561 157.428L20.2824 162.527ZM14.6202 166.443L20.2824 162.527L16.7561 157.428L11.0939 161.344L14.6202 166.443ZM9.13141 164.114C9.55797 164.731 10.0092 165.322 10.4829 165.886L15.2312 161.9C14.8813 161.483 14.5471 161.046 14.2304 160.588L9.13141 164.114Z" fill="black" mask="url(#path-4-inside-1_84_9)"/>
<rect x="123.737" y="279.423" width="228.609" height="43.397" transform="rotate(-34.6665 123.737 279.423)" fill="#FDF1E1" stroke="#251605" stroke-width="3.09979"/>
</svg>
